# xmcd CD database file
#
# Track frame offsets:
#	150
#	27034
#	56924
#	93568
#	126560
#	146930
#	171559
#	195667
#	218847
#
# Disc length: 3404 seconds
#
# Revision: 0
# Processed by: cddbd v1.5PL3 Copyright (c) Steve Scherf et al.
# Submitted via: CDex 1.50
#
DISCID=910d4a09
DTITLE=Liberty Ellman - Tactiles
DYEAR=2003
DGENRE=Jazz
TTITLE0=Excavation
TTITLE1=Clean Is Rich
TTITLE2=Temporary Aid
TTITLE3=Helios
TTITLE4=Rare Birds
TTITLE5=Body Art
TTITLE6=How May Texts
TTITLE7=Ultraviolet
TTITLE8=Post Approval
EXTD=YEAR: 2003
EXTT0=
EXTT1=
EXTT2=
EXTT3=
EXTT4=
EXTT5=
EXTT6=
EXTT7=
EXTT8=
PLAYORDER=
